<mxfile host="app.diagrams.net" modified="2020-11-15T01:26:28.766Z" agent="5.0 (Windows NT 10.0; Win64; x64) AppleWebKit/537.36 (KHTML, like Gecko) Chrome/85.0.4183.121 Safari/537.36 OPR/71.0.3770.323" etag="vL0aDflYKsknsxwrKcze" version="13.8.5" type="github">
  <diagram id="6c5VPGzMf1x3zzQ11QVV" name="Page-1">
    <mxGraphModel dx="1381" dy="764" grid="1" gridSize="10" guides="1" tooltips="1" connect="1" arrows="1" fold="1" page="1" pageScale="1" pageWidth="827" pageHeight="1169" math="0" shadow="0">
      <root>
        <mxCell id="0" />
        <mxCell id="1" parent="0" />
        <mxCell id="tobh9sjww8kmkz2U8PJ8-4" value="" style="edgeStyle=orthogonalEdgeStyle;rounded=0;orthogonalLoop=1;jettySize=auto;html=1;" edge="1" parent="1" source="tobh9sjww8kmkz2U8PJ8-1" target="tobh9sjww8kmkz2U8PJ8-2">
          <mxGeometry relative="1" as="geometry" />
        </mxCell>
        <mxCell id="tobh9sjww8kmkz2U8PJ8-1" value="Start" style="ellipse;whiteSpace=wrap;html=1;" vertex="1" parent="1">
          <mxGeometry x="354" y="40" width="120" height="80" as="geometry" />
        </mxCell>
        <mxCell id="tobh9sjww8kmkz2U8PJ8-17" value="" style="edgeStyle=orthogonalEdgeStyle;rounded=0;orthogonalLoop=1;jettySize=auto;html=1;" edge="1" parent="1" source="tobh9sjww8kmkz2U8PJ8-2" target="tobh9sjww8kmkz2U8PJ8-16">
          <mxGeometry relative="1" as="geometry" />
        </mxCell>
        <mxCell id="tobh9sjww8kmkz2U8PJ8-2" value="e_start, var_aux[3], s_result_mult" style="shape=internalStorage;whiteSpace=wrap;html=1;dx=15;dy=15;rounded=1;arcSize=8;strokeWidth=2;" vertex="1" parent="1">
          <mxGeometry x="301" y="160" width="226" height="90" as="geometry" />
        </mxCell>
        <mxCell id="tobh9sjww8kmkz2U8PJ8-29" value="" style="edgeStyle=orthogonalEdgeStyle;rounded=0;orthogonalLoop=1;jettySize=auto;html=1;" edge="1" parent="1" source="tobh9sjww8kmkz2U8PJ8-3" target="tobh9sjww8kmkz2U8PJ8-28">
          <mxGeometry relative="1" as="geometry" />
        </mxCell>
        <mxCell id="tobh9sjww8kmkz2U8PJ8-3" value="for(s_result_mult=0;var_aux[2] &amp;lt; 9; var_aux[2]++)" style="rounded=1;whiteSpace=wrap;html=1;absoluteArcSize=1;arcSize=14;strokeWidth=2;" vertex="1" parent="1">
          <mxGeometry x="266" y="580" width="296" height="90" as="geometry" />
        </mxCell>
        <mxCell id="tobh9sjww8kmkz2U8PJ8-32" value="" style="edgeStyle=orthogonalEdgeStyle;rounded=0;orthogonalLoop=1;jettySize=auto;html=1;" edge="1" parent="1" source="tobh9sjww8kmkz2U8PJ8-7" target="tobh9sjww8kmkz2U8PJ8-31">
          <mxGeometry relative="1" as="geometry" />
        </mxCell>
        <mxCell id="tobh9sjww8kmkz2U8PJ8-7" value="for(s_result_mult=0;var_aux[1] &amp;lt; 9 &amp;amp;&amp;amp; var_aux[2] == 9; var_aux[1]++)" style="rounded=1;whiteSpace=wrap;html=1;absoluteArcSize=1;arcSize=14;strokeWidth=2;" vertex="1" parent="1">
          <mxGeometry x="252" y="880" width="324" height="90" as="geometry" />
        </mxCell>
        <mxCell id="tobh9sjww8kmkz2U8PJ8-35" value="" style="edgeStyle=orthogonalEdgeStyle;rounded=0;orthogonalLoop=1;jettySize=auto;html=1;" edge="1" parent="1" source="tobh9sjww8kmkz2U8PJ8-9" target="tobh9sjww8kmkz2U8PJ8-34">
          <mxGeometry relative="1" as="geometry" />
        </mxCell>
        <mxCell id="tobh9sjww8kmkz2U8PJ8-9" value="for(s_result_mult=0; var_aux[0] &amp;lt; 9 &amp;amp;&amp;amp; var_aux[1] == 9 &amp;amp;&amp;amp; var_aux[2] == 9; var_aux[0]++)" style="rounded=1;whiteSpace=wrap;html=1;absoluteArcSize=1;arcSize=14;strokeWidth=2;" vertex="1" parent="1">
          <mxGeometry x="252" y="1150" width="324" height="90" as="geometry" />
        </mxCell>
        <mxCell id="tobh9sjww8kmkz2U8PJ8-19" style="edgeStyle=orthogonalEdgeStyle;rounded=0;orthogonalLoop=1;jettySize=auto;html=1;exitX=0;exitY=0.5;exitDx=0;exitDy=0;entryX=0.5;entryY=0;entryDx=0;entryDy=0;" edge="1" parent="1" source="tobh9sjww8kmkz2U8PJ8-11" target="tobh9sjww8kmkz2U8PJ8-14">
          <mxGeometry relative="1" as="geometry">
            <Array as="points">
              <mxPoint x="190" y="1515" />
              <mxPoint x="190" y="410" />
              <mxPoint x="414" y="410" />
            </Array>
          </mxGeometry>
        </mxCell>
        <mxCell id="tobh9sjww8kmkz2U8PJ8-21" style="edgeStyle=orthogonalEdgeStyle;rounded=0;orthogonalLoop=1;jettySize=auto;html=1;exitX=1;exitY=0.5;exitDx=0;exitDy=0;entryX=0.5;entryY=0;entryDx=0;entryDy=0;" edge="1" parent="1" source="tobh9sjww8kmkz2U8PJ8-11" target="tobh9sjww8kmkz2U8PJ8-20">
          <mxGeometry relative="1" as="geometry" />
        </mxCell>
        <mxCell id="tobh9sjww8kmkz2U8PJ8-11" value="if(var_aux[0] == 9 &amp;amp;&amp;amp; var_aux[1] == 9 &amp;amp;&amp;amp; var_aux[2] == 9)" style="rhombus;whiteSpace=wrap;html=1;" vertex="1" parent="1">
          <mxGeometry x="229" y="1450" width="370" height="130" as="geometry" />
        </mxCell>
        <mxCell id="tobh9sjww8kmkz2U8PJ8-15" value="" style="edgeStyle=orthogonalEdgeStyle;rounded=0;orthogonalLoop=1;jettySize=auto;html=1;" edge="1" parent="1" source="tobh9sjww8kmkz2U8PJ8-14" target="tobh9sjww8kmkz2U8PJ8-3">
          <mxGeometry relative="1" as="geometry" />
        </mxCell>
        <mxCell id="tobh9sjww8kmkz2U8PJ8-14" value="while(e_start == 1)" style="rhombus;whiteSpace=wrap;html=1;" vertex="1" parent="1">
          <mxGeometry x="231" y="430" width="366" height="110" as="geometry" />
        </mxCell>
        <mxCell id="tobh9sjww8kmkz2U8PJ8-18" value="" style="edgeStyle=orthogonalEdgeStyle;rounded=0;orthogonalLoop=1;jettySize=auto;html=1;" edge="1" parent="1" source="tobh9sjww8kmkz2U8PJ8-16" target="tobh9sjww8kmkz2U8PJ8-14">
          <mxGeometry relative="1" as="geometry" />
        </mxCell>
        <mxCell id="tobh9sjww8kmkz2U8PJ8-16" value="e_start" style="html=1;strokeWidth=2;shape=manualInput;whiteSpace=wrap;rounded=1;size=26;arcSize=11;" vertex="1" parent="1">
          <mxGeometry x="324" y="290" width="180" height="100" as="geometry" />
        </mxCell>
        <mxCell id="tobh9sjww8kmkz2U8PJ8-24" style="edgeStyle=orthogonalEdgeStyle;rounded=0;orthogonalLoop=1;jettySize=auto;html=1;exitX=0.5;exitY=1;exitDx=0;exitDy=0;entryX=0.5;entryY=0;entryDx=0;entryDy=0;entryPerimeter=0;" edge="1" parent="1" source="tobh9sjww8kmkz2U8PJ8-20" target="tobh9sjww8kmkz2U8PJ8-22">
          <mxGeometry relative="1" as="geometry" />
        </mxCell>
        <mxCell id="tobh9sjww8kmkz2U8PJ8-20" value="s_result_mult = var_aux[0]*var_aux[1]*var_aux[2]&lt;br&gt;&lt;br&gt;e_start = 0" style="rounded=1;whiteSpace=wrap;html=1;absoluteArcSize=1;arcSize=14;strokeWidth=2;" vertex="1" parent="1">
          <mxGeometry x="552" y="1589" width="230" height="70" as="geometry" />
        </mxCell>
        <mxCell id="tobh9sjww8kmkz2U8PJ8-26" value="" style="edgeStyle=orthogonalEdgeStyle;rounded=0;orthogonalLoop=1;jettySize=auto;html=1;" edge="1" parent="1" source="tobh9sjww8kmkz2U8PJ8-22" target="tobh9sjww8kmkz2U8PJ8-25">
          <mxGeometry relative="1" as="geometry" />
        </mxCell>
        <mxCell id="tobh9sjww8kmkz2U8PJ8-22" value="s_result_mult, var_aux[0], var_aux[1], var_aux[2]" style="strokeWidth=2;html=1;shape=mxgraph.flowchart.document2;whiteSpace=wrap;size=0.25;" vertex="1" parent="1">
          <mxGeometry x="321" y="1800" width="190" height="100" as="geometry" />
        </mxCell>
        <mxCell id="tobh9sjww8kmkz2U8PJ8-25" value="End" style="ellipse;whiteSpace=wrap;html=1;" vertex="1" parent="1">
          <mxGeometry x="356" y="1960" width="120" height="80" as="geometry" />
        </mxCell>
        <mxCell id="tobh9sjww8kmkz2U8PJ8-30" value="" style="edgeStyle=orthogonalEdgeStyle;rounded=0;orthogonalLoop=1;jettySize=auto;html=1;" edge="1" parent="1" source="tobh9sjww8kmkz2U8PJ8-28" target="tobh9sjww8kmkz2U8PJ8-7">
          <mxGeometry relative="1" as="geometry" />
        </mxCell>
        <mxCell id="tobh9sjww8kmkz2U8PJ8-37" style="edgeStyle=orthogonalEdgeStyle;rounded=0;orthogonalLoop=1;jettySize=auto;html=1;entryX=0.5;entryY=0;entryDx=0;entryDy=0;" edge="1" parent="1" source="tobh9sjww8kmkz2U8PJ8-28" target="tobh9sjww8kmkz2U8PJ8-3">
          <mxGeometry relative="1" as="geometry">
            <Array as="points">
              <mxPoint x="414" y="850" />
              <mxPoint x="582" y="850" />
              <mxPoint x="582" y="560" />
              <mxPoint x="414" y="560" />
            </Array>
          </mxGeometry>
        </mxCell>
        <mxCell id="tobh9sjww8kmkz2U8PJ8-28" value="s_result_mult, var_aux[0], var_aux[1], var_aux[2]" style="strokeWidth=2;html=1;shape=mxgraph.flowchart.document2;whiteSpace=wrap;size=0.25;" vertex="1" parent="1">
          <mxGeometry x="319" y="730" width="190" height="100" as="geometry" />
        </mxCell>
        <mxCell id="tobh9sjww8kmkz2U8PJ8-33" value="" style="edgeStyle=orthogonalEdgeStyle;rounded=0;orthogonalLoop=1;jettySize=auto;html=1;" edge="1" parent="1" source="tobh9sjww8kmkz2U8PJ8-31" target="tobh9sjww8kmkz2U8PJ8-9">
          <mxGeometry relative="1" as="geometry" />
        </mxCell>
        <mxCell id="tobh9sjww8kmkz2U8PJ8-38" style="edgeStyle=orthogonalEdgeStyle;rounded=0;orthogonalLoop=1;jettySize=auto;html=1;entryX=0.5;entryY=0;entryDx=0;entryDy=0;" edge="1" parent="1" source="tobh9sjww8kmkz2U8PJ8-31" target="tobh9sjww8kmkz2U8PJ8-7">
          <mxGeometry relative="1" as="geometry">
            <Array as="points">
              <mxPoint x="414" y="1120" />
              <mxPoint x="596" y="1120" />
              <mxPoint x="596" y="860" />
              <mxPoint x="414" y="860" />
            </Array>
          </mxGeometry>
        </mxCell>
        <mxCell id="tobh9sjww8kmkz2U8PJ8-40" value="Text" style="edgeLabel;html=1;align=center;verticalAlign=middle;resizable=0;points=[];" vertex="1" connectable="0" parent="tobh9sjww8kmkz2U8PJ8-38">
          <mxGeometry x="-0.3027" y="-5" relative="1" as="geometry">
            <mxPoint as="offset" />
          </mxGeometry>
        </mxCell>
        <mxCell id="tobh9sjww8kmkz2U8PJ8-31" value="s_result_mult, var_aux[0], var_aux[1], var_aux[2]" style="strokeWidth=2;html=1;shape=mxgraph.flowchart.document2;whiteSpace=wrap;size=0.25;" vertex="1" parent="1">
          <mxGeometry x="319" y="1010" width="190" height="100" as="geometry" />
        </mxCell>
        <mxCell id="tobh9sjww8kmkz2U8PJ8-36" value="" style="edgeStyle=orthogonalEdgeStyle;rounded=0;orthogonalLoop=1;jettySize=auto;html=1;" edge="1" parent="1" source="tobh9sjww8kmkz2U8PJ8-34" target="tobh9sjww8kmkz2U8PJ8-11">
          <mxGeometry relative="1" as="geometry" />
        </mxCell>
        <mxCell id="tobh9sjww8kmkz2U8PJ8-39" style="edgeStyle=orthogonalEdgeStyle;rounded=0;orthogonalLoop=1;jettySize=auto;html=1;entryX=0.5;entryY=0;entryDx=0;entryDy=0;" edge="1" parent="1" source="tobh9sjww8kmkz2U8PJ8-34" target="tobh9sjww8kmkz2U8PJ8-9">
          <mxGeometry relative="1" as="geometry">
            <Array as="points">
              <mxPoint x="414" y="1420" />
              <mxPoint x="596" y="1420" />
              <mxPoint x="596" y="1130" />
              <mxPoint x="414" y="1130" />
            </Array>
          </mxGeometry>
        </mxCell>
        <mxCell id="tobh9sjww8kmkz2U8PJ8-34" value="s_result_mult, var_aux[0], var_aux[1], var_aux[2]" style="strokeWidth=2;html=1;shape=mxgraph.flowchart.document2;whiteSpace=wrap;size=0.25;" vertex="1" parent="1">
          <mxGeometry x="319" y="1310" width="190" height="100" as="geometry" />
        </mxCell>
      </root>
    </mxGraphModel>
  </diagram>
</mxfile>
